<svg width="512" height="512" viewBox="0 0 512 512" fill="none" xmlns="http://www.w3.org/2000/svg">
<path fill-rule="evenodd" clip-rule="evenodd" d="M109.057 77.0774C64.0176 90.6447 27.4864 128.737 23.4054 184.058C21.848 205.17 30.6355 228.687 46.8978 253.392C63.0972 278.001 86.2238 303.049 112.068 326.983C163.753 374.849 225.295 417.349 261.212 442.017C265 444.619 265.737 449.502 262.858 452.925C259.98 456.348 254.576 457.014 250.788 454.413C214.922 429.779 152.424 386.649 99.7377 337.857C73.3956 313.461 49.2533 287.423 32.0917 261.352C14.993 235.376 4.3275 208.618 6.21567 183.023C10.7486 121.576 51.7426 77.9311 103.609 62.3072C155.558 46.6588 217.368 59.4262 262.618 108.498C265.663 111.8 265.169 116.709 261.515 119.461C257.86 122.214 252.428 121.768 249.383 118.465C208.493 74.1218 154.015 63.5347 109.057 77.0774Z" fill="black"/>
<path fill-rule="evenodd" clip-rule="evenodd" d="M402.943 77.0774C447.982 90.6447 484.514 128.737 488.595 184.058C490.152 205.17 481.364 228.687 465.102 253.392C448.903 278.001 425.776 303.049 399.932 326.983C348.247 374.849 286.705 417.349 250.788 442.017C247 444.619 246.263 449.502 249.142 452.925C252.02 456.348 257.424 457.014 261.212 454.413C297.078 429.779 359.576 386.649 412.262 337.857C438.604 313.461 462.747 287.423 479.908 261.352C497.007 235.376 507.673 208.618 505.784 183.023C501.251 121.576 460.257 77.9311 408.391 62.3072C356.442 46.6588 294.632 59.4262 249.382 108.498C246.337 111.8 246.831 116.709 250.485 119.461C254.14 122.214 259.572 121.768 262.617 118.465C303.507 74.1218 357.985 63.5347 402.943 77.0774Z" fill="black"/>
</svg>
